<mxfile host="app.diagrams.net" modified="2023-09-07T05:37:36.640Z" agent="Mozilla/5.0 (Macintosh; Intel Mac OS X 10_15_7) AppleWebKit/537.36 (KHTML, like Gecko) Chrome/115.0.0.0 Safari/537.36" version="21.7.2" etag="_u1eng1ryX2L3TeIsU0l" type="github">
  <diagram name="第 1 页" id="f9H77KJjJ1fo_jWnu5Ui">
    <mxGraphModel>
      <root>
        <mxCell id="0" />
        <mxCell id="1" parent="0" />
      </root>
    </mxGraphModel>
  </diagram>
</mxfile>
